# xmcd
#
# Track frame offsets: 
#        150
#        10446
#        21738
#        30947
#        40387
#        59330
#        72106
#        83612
#        100945
#        112920
#        126452
#        141807
#        154168
#        165823
#
# Disc length: 2375 seconds
#
# Revision: 0
# Processed by: cddbd v1.5.2PL0 Copyright (c) Steve Scherf et al.
# Submitted via: ExactAudioCopy v1.3
#
DISCID=b109450e
DTITLE=Bia Marchese - Let Me In
DYEAR=2017
DGENRE=Blues
TTITLE0=Love Me Right
TTITLE1=I Want To Go To Heaven To Rest
TTITLE2=Knock Knock
TTITLE3=Mr. Big Wheel
TTITLE4=My Good Lovin'
TTITLE5=Change Your Way Of Lovin'
TTITLE6=Deana Baby
TTITLE7=Nobody But You (feat. Wee Willie Walker)
TTITLE8=How Come
TTITLE9=Honey, You're So Good To Me
TTITLE10=Are You Satisfied
TTITLE11=My Man Called Me
TTITLE12=Down In The Valley
TTITLE13=Bye Bye Baby
EXTD=
EXTT0=
EXTT1=
EXTT2=
EXTT3=
EXTT4=
EXTT5=
EXTT6=
EXTT7=
EXTT8=
EXTT9=
EXTT10=
EXTT11=
EXTT12=
EXTT13=
PLAYORDER=
